<svg width="98" height="98" viewBox="0 0 98 98" fill="none" xmlns="http://www.w3.org/2000/svg">
<rect x="1" y="1" width="96" height="96" rx="48" fill="#FE4343"/>
<rect x="1" y="1" width="96" height="96" rx="48" stroke="#F3F4F6" stroke-width="2"/>
<path d="M31.9297 40.1289C32.5 40.1289 32.9453 40.0703 33.2656 39.9531C33.5938 39.8359 33.8477 39.6914 34.0273 39.5195C34.207 39.3477 34.3633 39.1758 34.4961 39.0039C34.6211 38.8477 34.7227 38.7305 34.8008 38.6523C34.8867 38.5742 35.0039 38.5195 35.1523 38.4883C35.2773 38.4492 35.4766 38.4258 35.75 38.418C36.0312 38.4023 36.3086 38.3945 36.582 38.3945C36.8633 38.3945 37.0586 38.4023 37.168 38.418C37.332 38.4258 37.4453 38.457 37.5078 38.5117C37.5703 38.5664 37.6094 38.6836 37.625 38.8633C37.6484 39.1133 37.6602 39.4102 37.6602 39.7539C37.668 40.0977 37.6641 40.3945 37.6484 40.6445C37.6406 40.7227 37.625 40.7891 37.6016 40.8438C37.5859 40.8984 37.5469 40.9805 37.4844 41.0898C37.4062 41.2148 37.2539 41.3984 37.0273 41.6406C36.8008 41.875 36.4688 42.1211 36.0312 42.3789C35.5938 42.6289 35.0273 42.8438 34.332 43.0234C33.6445 43.2031 32.7969 43.293 31.7891 43.293C30.7109 43.293 29.7031 43.1562 28.7656 42.8828C27.8281 42.6016 27.0039 42.1328 26.293 41.4766C25.5898 40.8203 25.0391 39.9336 24.6406 38.8164C24.25 37.6992 24.0547 36.3047 24.0547 34.6328C24.0547 32.7734 24.375 31.1953 25.0156 29.8984C25.6641 28.5938 26.582 27.6016 27.7695 26.9219C28.957 26.2422 30.3633 25.9023 31.9883 25.9023C33.1289 25.9023 34.043 26.0195 34.7305 26.2539C35.4258 26.4883 35.9531 26.7656 36.3125 27.0859C36.6719 27.3984 36.9258 27.6719 37.0742 27.9062C37.1289 27.9922 37.168 28.0703 37.1914 28.1406C37.2148 28.2031 37.2305 28.3047 37.2383 28.4453C37.2617 28.6328 37.2656 28.9062 37.25 29.2656C37.2422 29.625 37.2148 29.9414 37.168 30.2148C37.1367 30.3867 37.0859 30.5 37.0156 30.5547C36.9844 30.5859 36.9297 30.6133 36.8516 30.6367C36.7734 30.6602 36.6562 30.6719 36.5 30.6719C36.25 30.6719 35.9688 30.6641 35.6562 30.6484C35.3438 30.625 35.1094 30.6016 34.9531 30.5781C34.7656 30.5469 34.6289 30.5039 34.543 30.4492C34.457 30.3867 34.3711 30.293 34.2852 30.168C34.1445 29.9648 33.9023 29.7305 33.5586 29.4648C33.2148 29.1992 32.6484 29.0664 31.8594 29.0664C30.75 29.0664 29.8359 29.4961 29.1172 30.3555C28.3984 31.207 28.0391 32.5898 28.0391 34.5039C28.0391 36.4102 28.4141 37.8242 29.1641 38.7461C29.9219 39.668 30.8438 40.1289 31.9297 40.1289ZM49.2969 27.1211C49.7266 27.7227 50.1641 28.5 50.6094 29.4531C51.0625 30.3984 51.5 31.4375 51.9219 32.5703C52.3438 33.7031 52.7227 34.8633 53.0586 36.0508C53.4023 37.2305 53.6836 38.3672 53.9023 39.4609C54.1211 40.5547 54.2461 41.5273 54.2773 42.3789C54.2852 42.793 54.0977 43 53.7148 43H50.8789C50.5117 43 50.3203 42.8164 50.3047 42.4492C50.2734 41.5742 50.1328 40.5117 49.8828 39.2617H43.4844C43.2656 40.4805 43.1406 41.543 43.1094 42.4492C43.0938 42.8164 42.8945 43 42.5117 43H39.7344C39.5938 43 39.4766 42.9609 39.3828 42.8828C39.2891 42.7969 39.2461 42.6523 39.2539 42.4492C39.293 41.582 39.418 40.5977 39.6289 39.4961C39.8477 38.3867 40.1289 37.2383 40.4727 36.0508C40.8164 34.8633 41.1992 33.7031 41.6211 32.5703C42.043 31.4297 42.4805 30.3867 42.9336 29.4414C43.3867 28.4961 43.8281 27.7227 44.2578 27.1211C44.4844 26.8008 44.7227 26.5664 44.9727 26.418C45.2305 26.2695 45.5469 26.1953 45.9219 26.1953H47.6094C47.9922 26.1953 48.3125 26.2695 48.5703 26.418C48.8281 26.5664 49.0703 26.8008 49.2969 27.1211ZM46.6484 29.8984C46.1328 30.7188 45.6602 31.6992 45.2305 32.8398C44.8008 33.9805 44.4297 35.1523 44.1172 36.3555H49.2031C48.875 35.1523 48.4961 33.9805 48.0664 32.8398C47.6367 31.6992 47.1875 30.7188 46.7188 29.8984H46.6484ZM60.6055 42.3789C60.6055 42.6133 60.5586 42.7773 60.4648 42.8711C60.3789 42.957 60.2227 43 59.9961 43H57.6406C57.4219 43 57.2656 42.957 57.1719 42.8711C57.0781 42.7773 57.0312 42.6133 57.0312 42.3789V27.5312C57.0312 27.0703 57.1211 26.7344 57.3008 26.5234C57.4805 26.3047 57.7969 26.1953 58.25 26.1953H59.3398C59.7383 26.1953 60.1133 26.25 60.4648 26.3594C60.8242 26.4609 61.2031 26.6953 61.6016 27.0625C62.0078 27.4297 62.4766 28 63.0078 28.7734C63.5469 29.5391 64.1953 30.5859 64.9531 31.9141C65.6797 33.1797 66.2617 34.1914 66.6992 34.9492C67.1445 35.707 67.4883 36.2852 67.7305 36.6836C67.9727 37.082 68.1523 37.3672 68.2695 37.5391C68.3945 37.7109 68.4961 37.8516 68.5742 37.9609V28.0703C68.5742 27.8438 68.6094 27.6719 68.6797 27.5547C69.0156 27.0391 69.4805 26.4961 70.0742 25.9258C70.1914 25.832 70.2891 25.7852 70.3672 25.7852C70.4531 25.7852 70.5469 25.832 70.6484 25.9258C70.9688 26.2227 71.2383 26.5078 71.457 26.7812C71.6836 27.0469 71.8789 27.3047 72.043 27.5547C72.1133 27.6797 72.1484 27.8516 72.1484 28.0703V42.0273C72.1484 42.3789 72.082 42.6289 71.9492 42.7773C71.8164 42.9258 71.5742 43 71.2227 43H70.0977C69.7617 43 69.418 42.9453 69.0664 42.8359C68.7148 42.7188 68.3164 42.4609 67.8711 42.0625C67.4258 41.6562 66.8984 41.0273 66.2891 40.1758C65.6797 39.3242 64.9453 38.1602 64.0859 36.6836C63.3594 35.4258 62.7773 34.4258 62.3398 33.6836C61.9102 32.9414 61.582 32.3828 61.3555 32.0078C61.1289 31.625 60.9648 31.3594 60.8633 31.2109C60.7617 31.0547 60.6758 30.9375 60.6055 30.8594V42.3789ZM27.7695 74C26.9648 74 26.3516 73.8984 25.9297 73.6953C25.5156 73.4922 25.2344 73.1602 25.0859 72.6992C24.9453 72.2383 24.875 71.625 24.875 70.8594V60.3359C24.875 59.5547 24.9453 58.9375 25.0859 58.4844C25.2344 58.0234 25.5156 57.6953 25.9297 57.5C26.3516 57.2969 26.9648 57.1953 27.7695 57.1953H31.3672C33.0469 57.1953 34.5156 57.4453 35.7734 57.9453C37.0391 58.4453 38.0234 59.293 38.7266 60.4883C39.4297 61.6758 39.7812 63.3086 39.7812 65.3867C39.7812 67.4648 39.4297 69.1367 38.7266 70.4023C38.0234 71.6602 37.0391 72.5742 35.7734 73.1445C34.5156 73.7148 33.0469 74 31.3672 74H27.7695ZM29.9961 60.2773C29.4805 60.2773 29.1289 60.3867 28.9414 60.6055C28.7539 60.8242 28.6602 61.1992 28.6602 61.7305V69.4648C28.6602 69.9883 28.7539 70.3633 28.9414 70.5898C29.1289 70.8164 29.4805 70.9297 29.9961 70.9297H30.5352C32.207 70.9297 33.5 70.5195 34.4141 69.6992C35.3359 68.8789 35.7969 67.457 35.7969 65.4336C35.7969 64.082 35.5859 63.0352 35.1641 62.293C34.75 61.543 34.1484 61.0195 33.3594 60.7227C32.5703 60.4258 31.6211 60.2773 30.5117 60.2773H29.9961ZM46.4961 73.3789C46.4961 73.6133 46.4453 73.7773 46.3438 73.8711C46.25 73.957 46.0859 74 45.8516 74H43.3555C43.1211 74 42.9531 73.957 42.8516 73.8711C42.7578 73.7773 42.7109 73.6133 42.7109 73.3789V60.3359C42.7109 59.5547 42.7812 58.9375 42.9219 58.4844C43.0703 58.0234 43.3516 57.6953 43.7656 57.5C44.1875 57.2969 44.8008 57.1953 45.6055 57.1953H48.7109C52.7891 57.1953 54.8281 58.7617 54.8281 61.8945C54.8281 62.8477 54.668 63.6289 54.3477 64.2383C54.0273 64.8477 53.6289 65.3242 53.1523 65.668C52.6758 66.0039 52.207 66.2578 51.7461 66.4297V66.4883C52.2695 66.832 52.7656 67.2852 53.2344 67.8477C53.7109 68.4023 54.1406 69.0078 54.5234 69.6641C54.9062 70.3125 55.2305 70.957 55.4961 71.5977C55.7617 72.2305 55.9453 72.7969 56.0469 73.2969C56.0938 73.5312 56.0938 73.707 56.0469 73.8242C56.0078 73.9414 55.875 74 55.6484 74H52.9414C52.7383 74 52.5586 73.957 52.4023 73.8711C52.2539 73.7852 52.1172 73.5859 51.9922 73.2734C51.3984 71.7812 50.7148 70.5664 49.9414 69.6289C49.168 68.6836 48.4219 67.9258 47.7031 67.3555C47.2422 66.9883 47.0117 66.7266 47.0117 66.5703C47.0117 66.4453 47.0859 66.2734 47.2344 66.0547C47.3281 65.9219 47.4648 65.7617 47.6445 65.5742C47.8242 65.3867 47.9805 65.2461 48.1133 65.1523C48.2461 65.0586 48.3516 65 48.4297 64.9766C48.5156 64.9531 48.6445 64.9414 48.8164 64.9414C49.3945 64.9414 49.875 64.7422 50.2578 64.3438C50.6484 63.9453 50.8438 63.3164 50.8438 62.457C50.8438 61.6445 50.6367 61.0508 50.2227 60.6758C49.8164 60.293 49.2539 60.1016 48.5352 60.1016H47.832C47.3164 60.1016 46.9648 60.2109 46.7773 60.4297C46.5898 60.6484 46.4961 61.0234 46.4961 61.5547V73.3789ZM67.7656 58.1211C68.1953 58.7227 68.6328 59.5 69.0781 60.4531C69.5312 61.3984 69.9688 62.4375 70.3906 63.5703C70.8125 64.7031 71.1914 65.8633 71.5273 67.0508C71.8711 68.2305 72.1523 69.3672 72.3711 70.4609C72.5898 71.5547 72.7148 72.5273 72.7461 73.3789C72.7539 73.793 72.5664 74 72.1836 74H69.3477C68.9805 74 68.7891 73.8164 68.7734 73.4492C68.7422 72.5742 68.6016 71.5117 68.3516 70.2617H61.9531C61.7344 71.4805 61.6094 72.543 61.5781 73.4492C61.5625 73.8164 61.3633 74 60.9805 74H58.2031C58.0625 74 57.9453 73.9609 57.8516 73.8828C57.7578 73.7969 57.7148 73.6523 57.7227 73.4492C57.7617 72.582 57.8867 71.5977 58.0977 70.4961C58.3164 69.3867 58.5977 68.2383 58.9414 67.0508C59.2852 65.8633 59.668 64.7031 60.0898 63.5703C60.5117 62.4297 60.9492 61.3867 61.4023 60.4414C61.8555 59.4961 62.2969 58.7227 62.7266 58.1211C62.9531 57.8008 63.1914 57.5664 63.4414 57.418C63.6992 57.2695 64.0156 57.1953 64.3906 57.1953H66.0781C66.4609 57.1953 66.7812 57.2695 67.0391 57.418C67.2969 57.5664 67.5391 57.8008 67.7656 58.1211ZM65.1172 60.8984C64.6016 61.7188 64.1289 62.6992 63.6992 63.8398C63.2695 64.9805 62.8984 66.1523 62.5859 67.3555H67.6719C67.3438 66.1523 66.9648 64.9805 66.5352 63.8398C66.1055 62.6992 65.6562 61.7188 65.1875 60.8984H65.1172Z" fill="white"/>
</svg>
